<mxfile host="app.diagrams.net" modified="2022-05-12T03:34:33.922Z" agent="5.0 (Macintosh; Intel Mac OS X 10_15_7) AppleWebKit/537.36 (KHTML, like Gecko) Chrome/100.0.4896.127 Safari/537.36" etag="pm_fUmJWbY9DzOobd-R4" version="17.5.0" type="github">
  <diagram id="Rla5n-zzJumrxvYezBTH" name="Page-1">
    <mxGraphModel dx="2278" dy="867" grid="1" gridSize="10" guides="1" tooltips="1" connect="1" arrows="1" fold="1" page="1" pageScale="1" pageWidth="827" pageHeight="1169" math="0" shadow="0">
      <root>
        <mxCell id="0" />
        <mxCell id="1" parent="0" />
        <mxCell id="llMQX2KNaokU8Sbs1Y39-11" value="Token" style="swimlane;fontStyle=0;childLayout=stackLayout;horizontal=1;startSize=26;fillColor=#dae8fc;horizontalStack=0;resizeParent=1;resizeParentMax=0;resizeLast=0;collapsible=1;marginBottom=0;strokeColor=#6c8ebf;" vertex="1" parent="1">
          <mxGeometry x="274" y="212" width="140" height="104" as="geometry" />
        </mxCell>
        <mxCell id="llMQX2KNaokU8Sbs1Y39-12" value="type: TokenType" style="text;strokeColor=#d79b00;fillColor=#ffe6cc;align=left;verticalAlign=top;spacingLeft=4;spacingRight=4;overflow=hidden;rotatable=0;points=[[0,0.5],[1,0.5]];portConstraint=eastwest;" vertex="1" parent="llMQX2KNaokU8Sbs1Y39-11">
          <mxGeometry y="26" width="140" height="26" as="geometry" />
        </mxCell>
        <mxCell id="llMQX2KNaokU8Sbs1Y39-13" value="begin: char*" style="text;strokeColor=#d79b00;fillColor=#ffe6cc;align=left;verticalAlign=top;spacingLeft=4;spacingRight=4;overflow=hidden;rotatable=0;points=[[0,0.5],[1,0.5]];portConstraint=eastwest;" vertex="1" parent="llMQX2KNaokU8Sbs1Y39-11">
          <mxGeometry y="52" width="140" height="26" as="geometry" />
        </mxCell>
        <mxCell id="llMQX2KNaokU8Sbs1Y39-14" value="end: char*" style="text;strokeColor=#d79b00;fillColor=#ffe6cc;align=left;verticalAlign=top;spacingLeft=4;spacingRight=4;overflow=hidden;rotatable=0;points=[[0,0.5],[1,0.5]];portConstraint=eastwest;" vertex="1" parent="llMQX2KNaokU8Sbs1Y39-11">
          <mxGeometry y="78" width="140" height="26" as="geometry" />
        </mxCell>
        <mxCell id="llMQX2KNaokU8Sbs1Y39-15" value="TokenType" style="swimlane;fontStyle=0;childLayout=stackLayout;horizontal=1;startSize=26;fillColor=none;horizontalStack=0;resizeParent=1;resizeParentMax=0;resizeLast=0;collapsible=1;marginBottom=0;" vertex="1" parent="1">
          <mxGeometry x="510" y="220" width="150" height="110" as="geometry" />
        </mxCell>
        <mxCell id="llMQX2KNaokU8Sbs1Y39-16" value="是一个枚举类 enum class，枚举内容为Whitespace\Number\Dot\Error等多种Token类型" style="text;strokeColor=#666666;fillColor=#f5f5f5;align=left;verticalAlign=middle;spacingLeft=4;spacingRight=4;overflow=hidden;rotatable=0;points=[[0,0.5],[1,0.5]];portConstraint=eastwest;labelPosition=center;verticalLabelPosition=middle;whiteSpace=wrap;fontColor=#333333;" vertex="1" parent="llMQX2KNaokU8Sbs1Y39-15">
          <mxGeometry y="26" width="150" height="84" as="geometry" />
        </mxCell>
        <mxCell id="llMQX2KNaokU8Sbs1Y39-21" style="edgeStyle=orthogonalEdgeStyle;rounded=0;orthogonalLoop=1;jettySize=auto;html=1;exitX=1;exitY=0.5;exitDx=0;exitDy=0;entryX=0.5;entryY=0;entryDx=0;entryDy=0;" edge="1" parent="1" source="llMQX2KNaokU8Sbs1Y39-12" target="llMQX2KNaokU8Sbs1Y39-15">
          <mxGeometry relative="1" as="geometry" />
        </mxCell>
        <mxCell id="llMQX2KNaokU8Sbs1Y39-22" value="Lexer" style="swimlane;fontStyle=0;childLayout=stackLayout;horizontal=1;startSize=26;fillColor=#dae8fc;horizontalStack=0;resizeParent=1;resizeParentMax=0;resizeLast=0;collapsible=1;marginBottom=0;html=0;strokeColor=#6c8ebf;" vertex="1" parent="1">
          <mxGeometry x="300" y="420" width="140" height="130" as="geometry" />
        </mxCell>
        <mxCell id="llMQX2KNaokU8Sbs1Y39-23" value="Token nextToken();" style="text;strokeColor=#82b366;fillColor=#d5e8d4;align=left;verticalAlign=top;spacingLeft=4;spacingRight=4;overflow=hidden;rotatable=0;points=[[0,0.5],[1,0.5]];portConstraint=eastwest;html=0;" vertex="1" parent="llMQX2KNaokU8Sbs1Y39-22">
          <mxGeometry y="26" width="140" height="26" as="geometry" />
        </mxCell>
        <mxCell id="llMQX2KNaokU8Sbs1Y39-24" value="begin: char* const" style="text;strokeColor=#d79b00;fillColor=#ffe6cc;align=left;verticalAlign=top;spacingLeft=4;spacingRight=4;overflow=hidden;rotatable=0;points=[[0,0.5],[1,0.5]];portConstraint=eastwest;html=0;" vertex="1" parent="llMQX2KNaokU8Sbs1Y39-22">
          <mxGeometry y="52" width="140" height="26" as="geometry" />
        </mxCell>
        <mxCell id="llMQX2KNaokU8Sbs1Y39-25" value="pos: char*" style="text;strokeColor=#d79b00;fillColor=#ffe6cc;align=left;verticalAlign=top;spacingLeft=4;spacingRight=4;overflow=hidden;rotatable=0;points=[[0,0.5],[1,0.5]];portConstraint=eastwest;html=0;" vertex="1" parent="llMQX2KNaokU8Sbs1Y39-22">
          <mxGeometry y="78" width="140" height="26" as="geometry" />
        </mxCell>
        <mxCell id="llMQX2KNaokU8Sbs1Y39-30" value="end: char* const" style="text;strokeColor=#d79b00;fillColor=#ffe6cc;align=left;verticalAlign=top;spacingLeft=4;spacingRight=4;overflow=hidden;rotatable=0;points=[[0,0.5],[1,0.5]];portConstraint=eastwest;html=0;" vertex="1" parent="llMQX2KNaokU8Sbs1Y39-22">
          <mxGeometry y="104" width="140" height="26" as="geometry" />
        </mxCell>
        <mxCell id="llMQX2KNaokU8Sbs1Y39-26" value="class&lt;br&gt;类" style="rounded=0;whiteSpace=wrap;html=1;fillColor=#dae8fc;strokeColor=#6c8ebf;" vertex="1" parent="1">
          <mxGeometry x="20" y="20" width="120" height="60" as="geometry" />
        </mxCell>
        <mxCell id="llMQX2KNaokU8Sbs1Y39-27" value="func&lt;br&gt;函数" style="rounded=0;whiteSpace=wrap;html=1;fillColor=#d5e8d4;strokeColor=#82b366;" vertex="1" parent="1">
          <mxGeometry x="140" y="20" width="120" height="60" as="geometry" />
        </mxCell>
        <mxCell id="llMQX2KNaokU8Sbs1Y39-28" value="成员变量" style="rounded=0;whiteSpace=wrap;html=1;fillColor=#ffe6cc;strokeColor=#d79b00;" vertex="1" parent="1">
          <mxGeometry x="260" y="20" width="120" height="60" as="geometry" />
        </mxCell>
        <mxCell id="llMQX2KNaokU8Sbs1Y39-29" value="注释" style="rounded=0;whiteSpace=wrap;html=1;fillColor=#f5f5f5;fontColor=#333333;strokeColor=#666666;" vertex="1" parent="1">
          <mxGeometry x="380" y="20" width="120" height="60" as="geometry" />
        </mxCell>
        <mxCell id="llMQX2KNaokU8Sbs1Y39-31" value="Tokens" style="swimlane;fontStyle=0;childLayout=stackLayout;horizontal=1;startSize=26;fillColor=#dae8fc;horizontalStack=0;resizeParent=1;resizeParentMax=0;resizeLast=0;collapsible=1;marginBottom=0;strokeColor=#6c8ebf;" vertex="1" parent="1">
          <mxGeometry x="-50" y="264" width="140" height="104" as="geometry" />
        </mxCell>
        <mxCell id="llMQX2KNaokU8Sbs1Y39-32" value="data: vector&lt;Token&gt;" style="text;strokeColor=#d79b00;fillColor=#ffe6cc;align=left;verticalAlign=top;spacingLeft=4;spacingRight=4;overflow=hidden;rotatable=0;points=[[0,0.5],[1,0.5]];portConstraint=eastwest;" vertex="1" parent="llMQX2KNaokU8Sbs1Y39-31">
          <mxGeometry y="26" width="140" height="26" as="geometry" />
        </mxCell>
        <mxCell id="llMQX2KNaokU8Sbs1Y39-33" value="lexer: Lexer" style="text;strokeColor=#d79b00;fillColor=#ffe6cc;align=left;verticalAlign=top;spacingLeft=4;spacingRight=4;overflow=hidden;rotatable=0;points=[[0,0.5],[1,0.5]];portConstraint=eastwest;" vertex="1" parent="llMQX2KNaokU8Sbs1Y39-31">
          <mxGeometry y="52" width="140" height="26" as="geometry" />
        </mxCell>
        <mxCell id="llMQX2KNaokU8Sbs1Y39-34" value="" style="text;strokeColor=#d79b00;fillColor=#ffe6cc;align=left;verticalAlign=top;spacingLeft=4;spacingRight=4;overflow=hidden;rotatable=0;points=[[0,0.5],[1,0.5]];portConstraint=eastwest;" vertex="1" parent="llMQX2KNaokU8Sbs1Y39-31">
          <mxGeometry y="78" width="140" height="26" as="geometry" />
        </mxCell>
        <mxCell id="llMQX2KNaokU8Sbs1Y39-35" style="edgeStyle=orthogonalEdgeStyle;rounded=0;orthogonalLoop=1;jettySize=auto;html=1;exitX=1;exitY=0.5;exitDx=0;exitDy=0;entryX=0.5;entryY=0;entryDx=0;entryDy=0;" edge="1" parent="1" source="llMQX2KNaokU8Sbs1Y39-32" target="llMQX2KNaokU8Sbs1Y39-11">
          <mxGeometry relative="1" as="geometry" />
        </mxCell>
        <mxCell id="llMQX2KNaokU8Sbs1Y39-36" style="edgeStyle=orthogonalEdgeStyle;rounded=0;orthogonalLoop=1;jettySize=auto;html=1;exitX=1;exitY=0.5;exitDx=0;exitDy=0;entryX=0.5;entryY=0;entryDx=0;entryDy=0;" edge="1" parent="1" source="llMQX2KNaokU8Sbs1Y39-33" target="llMQX2KNaokU8Sbs1Y39-22">
          <mxGeometry relative="1" as="geometry" />
        </mxCell>
        <mxCell id="llMQX2KNaokU8Sbs1Y39-52" style="edgeStyle=orthogonalEdgeStyle;rounded=0;orthogonalLoop=1;jettySize=auto;html=1;exitX=0.5;exitY=0;exitDx=0;exitDy=0;entryX=0.5;entryY=0;entryDx=0;entryDy=0;" edge="1" parent="1" source="llMQX2KNaokU8Sbs1Y39-37" target="llMQX2KNaokU8Sbs1Y39-41">
          <mxGeometry relative="1" as="geometry">
            <Array as="points">
              <mxPoint x="-520" y="300" />
              <mxPoint x="-290" y="300" />
            </Array>
          </mxGeometry>
        </mxCell>
        <mxCell id="llMQX2KNaokU8Sbs1Y39-37" value="Pos" style="swimlane;fontStyle=0;childLayout=stackLayout;horizontal=1;startSize=26;fillColor=#dae8fc;horizontalStack=0;resizeParent=1;resizeParentMax=0;resizeLast=0;collapsible=1;marginBottom=0;strokeColor=#6c8ebf;" vertex="1" parent="1">
          <mxGeometry x="-590" y="400" width="140" height="104" as="geometry" />
        </mxCell>
        <mxCell id="llMQX2KNaokU8Sbs1Y39-38" value="depth: uint32_t" style="text;strokeColor=#d79b00;fillColor=#ffe6cc;align=left;verticalAlign=top;spacingLeft=4;spacingRight=4;overflow=hidden;rotatable=0;points=[[0,0.5],[1,0.5]];portConstraint=eastwest;" vertex="1" parent="llMQX2KNaokU8Sbs1Y39-37">
          <mxGeometry y="26" width="140" height="26" as="geometry" />
        </mxCell>
        <mxCell id="llMQX2KNaokU8Sbs1Y39-39" value="max_depth: uint32_t" style="text;strokeColor=#d79b00;fillColor=#ffe6cc;align=left;verticalAlign=top;spacingLeft=4;spacingRight=4;overflow=hidden;rotatable=0;points=[[0,0.5],[1,0.5]];portConstraint=eastwest;" vertex="1" parent="llMQX2KNaokU8Sbs1Y39-37">
          <mxGeometry y="52" width="140" height="26" as="geometry" />
        </mxCell>
        <mxCell id="llMQX2KNaokU8Sbs1Y39-40" value="" style="text;strokeColor=#d79b00;fillColor=#ffe6cc;align=left;verticalAlign=top;spacingLeft=4;spacingRight=4;overflow=hidden;rotatable=0;points=[[0,0.5],[1,0.5]];portConstraint=eastwest;" vertex="1" parent="llMQX2KNaokU8Sbs1Y39-37">
          <mxGeometry y="78" width="140" height="26" as="geometry" />
        </mxCell>
        <mxCell id="llMQX2KNaokU8Sbs1Y39-51" value="" style="edgeStyle=orthogonalEdgeStyle;rounded=0;orthogonalLoop=1;jettySize=auto;html=1;" edge="1" parent="1" source="llMQX2KNaokU8Sbs1Y39-41" target="llMQX2KNaokU8Sbs1Y39-50">
          <mxGeometry relative="1" as="geometry" />
        </mxCell>
        <mxCell id="llMQX2KNaokU8Sbs1Y39-41" value="TokenIterator" style="swimlane;fontStyle=0;childLayout=stackLayout;horizontal=1;startSize=26;fillColor=#dae8fc;horizontalStack=0;resizeParent=1;resizeParentMax=0;resizeLast=0;collapsible=1;marginBottom=0;strokeColor=#6c8ebf;" vertex="1" parent="1">
          <mxGeometry x="-360" y="350" width="140" height="104" as="geometry" />
        </mxCell>
        <mxCell id="llMQX2KNaokU8Sbs1Y39-42" value="tokens: Tokens" style="text;strokeColor=#d79b00;fillColor=#ffe6cc;align=left;verticalAlign=top;spacingLeft=4;spacingRight=4;overflow=hidden;rotatable=0;points=[[0,0.5],[1,0.5]];portConstraint=eastwest;" vertex="1" parent="llMQX2KNaokU8Sbs1Y39-41">
          <mxGeometry y="26" width="140" height="26" as="geometry" />
        </mxCell>
        <mxCell id="llMQX2KNaokU8Sbs1Y39-43" value="index: size_t" style="text;strokeColor=#d79b00;fillColor=#ffe6cc;align=left;verticalAlign=top;spacingLeft=4;spacingRight=4;overflow=hidden;rotatable=0;points=[[0,0.5],[1,0.5]];portConstraint=eastwest;" vertex="1" parent="llMQX2KNaokU8Sbs1Y39-41">
          <mxGeometry y="52" width="140" height="26" as="geometry" />
        </mxCell>
        <mxCell id="llMQX2KNaokU8Sbs1Y39-44" value="" style="text;strokeColor=#d79b00;fillColor=#ffe6cc;align=left;verticalAlign=top;spacingLeft=4;spacingRight=4;overflow=hidden;rotatable=0;points=[[0,0.5],[1,0.5]];portConstraint=eastwest;" vertex="1" parent="llMQX2KNaokU8Sbs1Y39-41">
          <mxGeometry y="78" width="140" height="26" as="geometry" />
        </mxCell>
        <mxCell id="llMQX2KNaokU8Sbs1Y39-45" style="edgeStyle=orthogonalEdgeStyle;rounded=0;orthogonalLoop=1;jettySize=auto;html=1;exitX=1;exitY=0.5;exitDx=0;exitDy=0;entryX=0.5;entryY=0;entryDx=0;entryDy=0;" edge="1" parent="1" source="llMQX2KNaokU8Sbs1Y39-42" target="llMQX2KNaokU8Sbs1Y39-31">
          <mxGeometry relative="1" as="geometry" />
        </mxCell>
        <mxCell id="llMQX2KNaokU8Sbs1Y39-50" value="对Tokens进行拓展，重载实现了取值* 自增++ 自减-- 比较 &amp;lt; == 等运算符；实现迭代器的功能" style="whiteSpace=wrap;html=1;fillColor=#f5f5f5;strokeColor=#666666;fontStyle=0;startSize=26;fontColor=#333333;" vertex="1" parent="1">
          <mxGeometry x="-350" y="556" width="120" height="104" as="geometry" />
        </mxCell>
      </root>
    </mxGraphModel>
  </diagram>
</mxfile>
